<?xml version="1.0" encoding="utf-8"?>
<!-- Generator: Adobe Illustrator 16.0.0, SVG Export Plug-In . SVG Version: 6.00 Build 0)  -->
<!DOCTYPE svg PUBLIC "-//W3C//DTD SVG 1.1//EN" "http://www.w3.org/Graphics/SVG/1.1/DTD/svg11.dtd">
<svg version="1.1" id="Layer_1" xmlns="http://www.w3.org/2000/svg" xmlns:xlink="http://www.w3.org/1999/xlink" x="0px" y="0px"
	 width="450px" height="310.102px" viewBox="0 0 450 310.102" enable-background="new 0 0 450 310.102" xml:space="preserve">
<path fill="#1C75BC" d="M67.436,239.538c53.781,0,107.562,0,161.343-0.008c53.781-0.004,107.564-0.004,161.344-0.004
	c6.18,0,6.239-0.063,6.239-6.37c0-64.479,0-128.963-0.009-193.446c0-5.352-0.453-5.869-5.537-5.869
	c-107.702-0.007-215.405-0.007-323.107,0.006c-6.583,0.001-6.665,0.139-6.665,6.851c0,64.203,0,128.409,0.001,192.612
	C61.045,239.457,61.136,239.538,67.436,239.538z M77.103,54.409c0-5.625,0.228-5.845,5.864-5.845
	c97.169-0.004,194.338-0.007,291.51-0.008c5.66,0,5.834,0.157,5.839,5.868c0.002,54.912,0.005,109.819,0,164.729
	c0,5.497-0.069,5.569-5.642,5.569c-48.658,0.007-97.309,0.003-145.968,0.003c0,0.008,0,0.017,0,0.021
	c-48.514,0-97.03,0-145.546-0.004c-6.046,0-6.068-0.019-6.068-6.021C77.092,163.952,77.094,109.182,77.103,54.409z"/>
<path fill="#1C75BC" d="M436.778,243.146c-4.723,0.15-9.449,0.044-14.175,0.044c-46.563,0-93.125,0.013-139.684-0.036
	c-2.545-0.002-4.339,0.146-5.225,3.214c-0.951,3.268-3.95,4.509-7.229,4.643c-2.774,0.113-5.56,0.017-8.339,0.017
	c-24.461,0-48.924-0.023-73.386,0.022c-4.596,0.008-8.299-1.183-9.597-6.125c-0.567-2.166-2.179-1.733-3.635-1.733
	c-51.425-0.004-102.85,0.032-154.276-0.065c-3.73-0.006-4.361,1.454-3.425,4.494c2.178,7.063,6.279,12.934,11.299,18.254
	c3.94,4.175,8.524,6.04,14.431,6.027c61.571-0.145,123.144-0.091,184.713-0.084c61.985,0.002,123.977,0.002,185.967,0.002
	c2.92,0,5.92,0.23,8.5-1.462c8.606-5.646,14.053-13.64,17.018-23.396C440.512,244.406,439.778,243.042,436.778,243.146z"/>
<path fill="#1C75BC" d="M117.561,158.769c51.842,0.003,103.683,0.054,155.527-0.108c3.928-0.01,5.484,1.348,6.839,4.796
	c6.248,15.888,12.826,31.646,19.194,47.494c1.525,3.813,3.832,6.612,8.125,6.636c4.303,0.027,6.765-2.671,8.118-6.59
	c0.714-2.047,1.633-4.027,2.893-7.097c1.806,2.137,2.945,3.719,4.319,5.065c4.335,4.244,8.408,4.291,12.738,0.139
	c2.906-2.787,5.75-5.645,8.52-8.567c4.113-4.337,3.992-8.312-0.159-12.77c-1.354-1.454-3.127-2.596-4.05-4.663
	c2.188-0.885,4.094-1.707,6.042-2.438c3.781-1.431,6.577-3.621,6.577-8.105c0-4.46-2.729-6.666-6.529-8.136
	c-3.938-1.521-7.804-3.217-11.704-4.839c0.064-0.276,0.13-0.55,0.19-0.825c2.572,0,5.148,0.02,7.726-0.004
	c14.249-0.136,24.966-10.803,25.112-25.113c0.093-9.032,0.072-18.066,0.019-27.1c-0.096-15.047-10.65-25.591-25.771-25.75
	c-6.394-0.066-12.787,0.004-19.181,0.004c-68.382,0.002-136.762-0.007-205.145,0.009c-16.045,0.003-26.56,10.358-26.607,26.131
	c-0.026,8.201-0.016,16.4-0.003,24.601C90.383,148.612,100.528,158.769,117.561,158.769z M344.275,172.523
	c-5.831,2.361-10.842,4.539-15.966,6.411c-2.872,1.047-3.089,1.992-0.839,4.061c3.166,2.902,6.031,6.135,9.181,9.063
	c1.594,1.479,2.28,2.548,0.221,4.186c-2.8,2.222-4.68,6.781-7.854,6.904c-2.979,0.12-5.065-4.234-7.522-6.638
	c-1.969-1.929-3.633-4.165-6.022-6.958c-1.725,4.139-2.972,7.11-4.203,10.091c-1.205,2.924-2.396,5.851-4.031,9.843
	c-8.549-21.003-16.719-41.068-25.379-62.343C303.146,155.8,323.258,163.975,344.275,172.523z M100.436,105.214
	c0.217-8.646,6.778-14.369,16.104-14.382c27.513-0.039,55.025-0.017,82.538-0.017c9.867,0,19.732,0,29.598,0.001
	c36.686,0.002,73.37,0.286,110.048-0.149c12.986-0.155,19.097,7.906,18.438,18.646c-0.479,7.892-0.063,15.834-0.12,23.754
	c-0.071,9.411-6.277,15.6-15.705,15.666c-7.088,0.052-14.255-0.674-21.242,0.166c-11.932,1.434-21.882-3.869-32.269-7.968
	c-1.674-0.658-3.27-1.509-5.123-1.656c-4.279-0.338-8.046,1.923-8.527,6.145c-0.398,3.448-2.152,3.355-4.635,3.353
	c-47.383-0.036-94.766-0.024-142.149-0.024c-4.03,0-8.06,0.057-12.089-0.016c-8.266-0.15-14.666-6.123-14.866-14.343
	C100.197,124.669,100.192,114.933,100.436,105.214z"/>
<path fill="#FEFEFE" d="M307.237,209.484c1.636-3.992,2.825-6.919,4.031-9.843c1.231-2.979,2.479-5.952,4.203-10.091
	c2.391,2.793,4.055,5.029,6.022,6.958c2.457,2.402,4.544,6.758,7.522,6.638c3.175-0.123,5.055-4.684,7.854-6.904
	c2.061-1.638,1.373-2.707-0.221-4.186c-3.148-2.928-6.015-6.159-9.181-9.063c-2.25-2.067-2.032-3.014,0.839-4.061
	c5.124-1.872,10.135-4.05,15.966-6.411c-21.019-8.549-41.13-16.724-62.417-25.382C290.52,168.416,298.689,188.481,307.237,209.484z"
	/>
<path fill="#FDFDFD" d="M357.161,109.314c0.657-10.74-5.452-18.802-18.438-18.646c-36.678,0.436-73.363,0.151-110.048,0.149
	c-9.865-0.001-19.73-0.001-29.598-0.001c-27.512,0-55.025-0.022-82.538,0.017c-9.326,0.013-15.887,5.735-16.104,14.382
	c-0.244,9.719-0.239,19.455,0,29.176c0.2,8.22,6.6,14.192,14.866,14.343c4.029,0.072,8.059,0.016,12.089,0.016
	c47.383,0,94.767-0.011,142.149,0.024c2.48,0.004,4.236,0.096,4.635-3.353c0.481-4.222,4.248-6.482,8.527-6.145
	c1.854,0.147,3.449,0.998,5.123,1.656c10.387,4.099,20.337,9.401,32.269,7.968c6.987-0.84,14.154-0.114,21.242-0.166
	c9.428-0.066,15.634-6.255,15.705-15.666C357.098,125.148,356.682,117.205,357.161,109.314z"/>
<g enable-background="new    ">
	<path fill="#1C75BC" d="M113.624,106.379c1.44-0.288,4.355-0.505,7.091-0.505c3.348,0,5.399,0.324,7.163,1.368
		c1.692,0.9,2.916,2.556,2.916,4.752c0,2.159-1.26,4.175-3.996,5.183v0.072c2.772,0.756,4.824,2.844,4.824,5.976
		c0,2.195-1.008,3.923-2.52,5.147c-1.764,1.403-4.715,2.195-9.539,2.195c-2.7,0-4.715-0.18-5.939-0.36V106.379z M119.06,115.665h1.8
		c2.879,0,4.427-1.188,4.427-2.987c0-1.836-1.404-2.808-3.887-2.808c-1.188,0-1.872,0.072-2.34,0.144V115.665z M119.06,126.428
		c0.54,0.072,1.188,0.072,2.124,0.072c2.484,0,4.68-0.936,4.68-3.491c0-2.448-2.196-3.42-4.932-3.42h-1.872V126.428z"/>
	<path fill="#1C75BC" d="M157.57,117.933c0,7.955-4.823,12.778-11.915,12.778c-7.199,0-11.411-5.435-11.411-12.346
		c0-7.271,4.644-12.707,11.807-12.707C153.503,105.658,157.57,111.239,157.57,117.933z M140.041,118.257
		c0,4.752,2.231,8.099,5.903,8.099c3.708,0,5.831-3.527,5.831-8.242c0-4.355-2.088-8.1-5.867-8.1
		C142.2,110.014,140.041,113.542,140.041,118.257z"/>
	<path fill="#1C75BC" d="M183.375,117.933c0,7.955-4.823,12.778-11.915,12.778c-7.199,0-11.411-5.435-11.411-12.346
		c0-7.271,4.644-12.707,11.807-12.707C179.307,105.658,183.375,111.239,183.375,117.933z M165.845,118.257
		c0,4.752,2.231,8.099,5.903,8.099c3.708,0,5.831-3.527,5.831-8.242c0-4.355-2.087-8.1-5.867-8.1
		C168.004,110.014,165.845,113.542,165.845,118.257z"/>
	<path fill="#1C75BC" d="M186.969,106.055h5.436v10.727h0.108c0.54-0.936,1.116-1.8,1.656-2.664l5.507-8.063h6.731l-8.027,10.33
		l8.459,13.931h-6.407l-5.939-10.475l-2.088,2.556v7.919h-5.436V106.055z"/>
	<path fill="#1C75BC" d="M245.814,117.933c0,7.955-4.822,12.778-11.914,12.778c-7.199,0-11.411-5.435-11.411-12.346
		c0-7.271,4.643-12.707,11.807-12.707C241.748,105.658,245.814,111.239,245.814,117.933z M228.285,118.257
		c0,4.752,2.231,8.099,5.903,8.099c3.708,0,5.831-3.527,5.831-8.242c0-4.355-2.088-8.1-5.867-8.1
		C230.445,110.014,228.285,113.542,228.285,118.257z"/>
	<path fill="#1C75BC" d="M249.409,130.316v-24.261h6.407l5.039,8.891c1.44,2.556,2.881,5.579,3.96,8.315h0.108
		c-0.36-3.204-0.469-6.479-0.469-10.115v-7.091h5.039v24.261h-5.758l-5.184-9.358c-1.44-2.592-3.023-5.724-4.212-8.567l-0.108,0.036
		c0.145,3.203,0.217,6.623,0.217,10.583v7.307H249.409z"/>
	<path fill="#1C75BC" d="M274.241,106.055h5.507v19.653h9.647v4.607h-15.154V106.055z"/>
	<path fill="#1C75BC" d="M298.139,106.055v24.261h-5.508v-24.261H298.139z"/>
	<path fill="#1C75BC" d="M302.888,130.316v-24.261h6.407l5.039,8.891c1.44,2.556,2.881,5.579,3.96,8.315h0.108
		c-0.36-3.204-0.469-6.479-0.469-10.115v-7.091h5.039v24.261h-5.758l-5.184-9.358c-1.44-2.592-3.023-5.724-4.212-8.567l-0.108,0.036
		c0.145,3.203,0.217,6.623,0.217,10.583v7.307H302.888z"/>
	<path fill="#1C75BC" d="M342.154,120.057h-8.928v5.76h9.971v4.499h-15.479v-24.261h14.975v4.499h-9.467v5.04h8.928V120.057z"/>
</g>
</svg>
